P3 16 16 100
0 0 100	1 0 99	2 0 98	3 0 97	4 0 96	4 0 96	5 0 95	6 0 94	7 0 93	8 0 92	10 0 90	12 0 88	15 0 85	20 0 80	30 0 70	50 0 50	
1 0 99	3 0 97	4 0 96	6 0 94	8 0 92	9 0 91	11 0 89	13 0 87	15 0 85	17 0 83	20 0 80	24 0 76	29 0 71	37 0 63	50 0 50	69 0 31	
2 0 98	4 0 96	7 0 93	9 0 91	11 0 89	14 0 86	16 0 84	19 0 81	22 0 78	25 0 75	29 0 71	34 0 66	41 0 59	50 0 50	62 0 38	79 0 21	
3 0 97	6 0 94	9 0 91	12 0 88	15 0 85	18 0 82	21 0 79	25 0 75	28 0 72	32 0 68	37 0 63	42 0 58	50 0 50	58 0 42	70 0 30	84 0 16	
4 0 96	8 0 92	11 0 89	15 0 85	19 0 81	23 0 77	26 0 74	30 0 70	34 0 66	38 0 62	44 0 56	50 0 50	57 0 43	65 0 35	75 0 25	87 0 13	
4 0 96	9 0 91	14 0 86	18 0 82	23 0 77	27 0 73	31 0 69	35 0 65	40 0 60	44 0 56	50 0 50	55 0 45	62 0 38	70 0 30	79 0 21	89 0 11	
5 0 95	11 0 89	16 0 84	21 0 79	26 0 74	31 0 69	35 0 65	40 0 60	45 0 55	50 0 50	55 0 45	61 0 39	67 0 33	74 0 26	82 0 18	91 0 9	
6 0 94	13 0 87	19 0 81	25 0 75	30 0 70	35 0 65	40 0 60	45 0 55	50 0 50	54 0 46	59 0 41	65 0 35	71 0 29	77 0 23	84 0 16	92 0 8	
7 0 93	15 0 85	22 0 78	28 0 72	34 0 66	40 0 60	45 0 55	50 0 50	54 0 46	59 0 41	64 0 36	69 0 31	74 0 26	80 0 20	86 0 14	93 0 7	
8 0 92	17 0 83	25 0 75	32 0 68	38 0 62	44 0 56	49 0 51	54 0 46	59 0 41	64 0 36	68 0 32	73 0 27	78 0 22	83 0 17	88 0 12	94 0 6	
10 0 90	20 0 80	29 0 71	37 0 63	44 0 56	50 0 50	55 0 45	59 0 41	64 0 36	68 0 32	72 0 28	76 0 24	81 0 19	85 0 15	90 0 10	95 0 5	
12 0 88	24 0 76	34 0 66	42 0 58	50 0 50	55 0 45	61 0 39	65 0 35	69 0 31	73 0 27	76 0 24	80 0 20	84 0 16	88 0 12	91 0 9	95 0 5	
15 0 85	29 0 71	41 0 59	50 0 50	57 0 43	62 0 38	67 0 33	71 0 29	74 0 26	78 0 22	81 0 19	84 0 16	87 0 13	90 0 10	93 0 7	96 0 4	
20 0 80	37 0 63	50 0 50	58 0 42	65 0 35	70 0 30	74 0 26	77 0 23	80 0 20	83 0 17	85 0 15	88 0 12	90 0 10	92 0 8	95 0 5	97 0 3	
30 0 70	50 0 50	62 0 38	70 0 30	75 0 25	79 0 21	82 0 18	84 0 16	86 0 14	88 0 12	90 0 10	91 0 9	93 0 7	95 0 5	96 0 4	98 0 2	
50 0 50	69 0 31	79 0 21	84 0 16	87 0 13	89 0 11	91 0 9	92 0 8	93 0 7	94 0 6	95 0 5	95 0 5	96 0 4	97 0 3	98 0 2	99 0 1	
